# 3ds Max Wavefront OBJ Exporter v0.99 - (c)2007 guruware
# File Created: 28.01.2023 19:42:46

mtllib eyes.mtl

#
# object eyes
#

v  23.9872 323.9889 394.7710
v  25.6459 325.2694 394.9632
v  24.3003 324.3577 396.2245
v  25.6243 325.4783 396.0575
v  26.9821 326.7725 395.0655
v  24.9130 325.1686 397.5190
v  25.5835 326.2931 398.5496
v  25.6651 325.7257 396.9625
v  26.3853 326.6761 397.4531
v  26.2972 327.6073 399.2898
v  27.2348 328.0666 397.9005
v  26.8304 326.8376 396.3744
v  27.9482 328.0777 395.1006
v  27.7103 328.1632 396.4719
v  13.3701 324.1587 397.5190
v  12.5146 325.1497 398.5496
v  12.5327 324.5767 396.9625
v  12.6159 324.3402 396.0575
v  14.1143 323.4665 396.2245
v  12.6309 324.1308 394.9632
v  14.4867 323.1577 394.7710
v  11.1920 325.4694 396.3744
v  11.6584 325.3877 397.4531
v  11.5835 326.3200 399.2898
v  11.0540 325.3790 395.0655
v  10.5803 326.6096 397.9005
v  9.8759 326.4966 395.1006
v  10.0953 326.6221 396.4719
# 28 vertices

vn 0.6044 -0.7935 0.0712
vn 0.6496 -0.7444 0.1549
vn 0.7351 -0.6631 0.1411
vn 0.6494 -0.7437 0.1585
vn 0.6949 -0.6650 0.2735
vn 0.6932 -0.6667 0.2740
vn 0.7369 -0.5880 0.3335
vn 0.6644 -0.7280 0.1691
vn 0.7575 -0.5669 0.3238
vn 0.7276 -0.6556 0.2021
vn 0.7912 -0.5614 0.2424
vn 0.7290 -0.6743 0.1180
vn 0.7214 -0.6756 0.1522
vn 0.7962 -0.5926 0.1218
vn 0.8029 -0.5499 0.2301
vn 0.8142 -0.5534 0.1758
vn -0.5689 -0.7756 0.2735
vn -0.5278 -0.8324 0.1690
vn -0.5105 -0.8452 0.1585
vn -0.5105 -0.8458 0.1549
vn -0.4574 -0.8864 0.0711
vn -0.5931 -0.7906 0.1521
vn -0.5669 -0.7769 0.2740
vn -0.6027 -0.7720 0.2021
vn -0.6236 -0.7070 0.3335
vn -0.6088 -0.7807 0.1411
vn -0.6008 -0.7907 0.1179
vn -0.6475 -0.6899 0.3238
vn -0.6817 -0.6903 0.2425
vn -0.6812 -0.7219 0.1217
vn -0.6953 -0.6809 0.2301
vn -0.7057 -0.6863 0.1757
# 32 vertex normals

vt 0.3057 1.8098 0.0000
vt 0.3549 1.8132 0.0000
vt 0.3179 1.8425 0.0000
vt 0.3575 1.8386 0.0000
vt 0.4016 1.8177 0.0000
vt 0.3408 1.8719 0.0000
vt 0.3682 1.8966 0.0000
vt 0.3618 1.8595 0.0000
vt 0.3879 1.8721 0.0000
vt 0.3993 1.9172 0.0000
vt 0.4234 1.8860 0.0000
vt 0.3987 1.8477 0.0000
vt 0.4392 1.8216 0.0000
vt 0.4346 1.8534 0.0000
vt 0.1592 1.8719 0.0000
vt 0.1318 1.8966 0.0000
vt 0.1383 1.8595 0.0000
vt 0.1425 1.8386 0.0000
vt 0.1821 1.8425 0.0000
vt 0.1451 1.8132 0.0000
vt 0.1943 1.8098 0.0000
vt 0.1013 1.8477 0.0000
vt 0.1121 1.8721 0.0000
vt 0.1007 1.9172 0.0000
vt 0.0984 1.8177 0.0000
vt 0.0766 1.8860 0.0000
vt 0.0608 1.8216 0.0000
vt 0.0654 1.8534 0.0000
# 28 texture coords

o eyes
g eyes
usemtl wire_115115115
s off
f 1/1/1 2/2/1 3/3/1 
f 2/2/2 4/4/2 3/3/2 
f 2/2/3 5/5/3 4/4/3 
f 3/3/4 4/4/4 6/6/4 
f 7/7/5 6/6/5 8/8/5 
f 7/7/6 8/8/6 9/9/6 
f 7/7/7 9/9/7 10/10/7 
f 6/6/8 4/4/8 8/8/8 
f 9/9/9 11/11/9 10/10/9 
f 9/9/10 8/8/10 12/12/10 
f 9/9/11 12/12/11 11/11/11 
f 4/4/12 5/5/12 12/12/12 
f 4/4/13 12/12/13 8/8/13 
f 5/5/14 13/13/14 12/12/14 
f 12/12/15 14/14/15 11/11/15 
f 12/12/16 13/13/16 14/14/16 
f 15/15/17 16/16/17 17/17/17 
f 15/15/18 17/17/18 18/18/18 
f 15/15/19 18/18/19 19/19/19 
f 19/19/20 18/18/20 20/20/20 
f 19/19/21 20/20/21 21/21/21 
f 17/17/22 22/22/22 18/18/22 
f 17/17/23 16/16/23 23/23/23 
f 17/17/24 23/23/24 22/22/24 
f 16/16/25 24/24/25 23/23/25 
f 20/20/26 18/18/26 25/25/26 
f 18/18/27 22/22/27 25/25/27 
f 24/24/28 26/26/28 23/23/28 
f 23/23/29 26/26/29 22/22/29 
f 25/25/30 22/22/30 27/27/30 
f 26/26/31 28/28/31 22/22/31 
f 28/28/32 27/27/32 22/22/32 
# 32 faces

