# WaveFront *.obj file (generated by Autodesk ATF)

mtllib 4.mtl

g 4

v 0.064418 0.007045 0.000000
v 0.064418 0.003898 0.000000
v 0.064418 0.003898 0.001000
v 0.064418 0.007045 0.001000
v 0.061744 0.003898 0.000000
v 0.061744 0.003898 0.001000
v 0.059357 0.001743 0.000000
v 0.064418 0.001743 0.000000
v 0.064418 0.001743 0.001000
v 0.059357 0.001743 0.001000
v 0.059357 0.004028 0.000000
v 0.059357 0.004028 0.001000
v 0.064418 0.010044 0.000000
v 0.064418 0.010044 0.001000
v 0.066840 0.010044 0.000000
v 0.066840 0.010044 0.001000
v 0.066840 0.003898 0.000000
v 0.066840 0.003898 0.001000
v 0.068095 0.003898 0.000000
v 0.068095 0.003898 0.001000
v 0.068095 0.001743 0.000000
v 0.068095 0.001743 0.001000
v 0.066840 0.001743 0.000000
v 0.066840 0.001743 0.001000
v 0.066840 -0.000126 0.000000
v 0.066840 -0.000126 0.001000
v 0.064418 -0.000126 0.000000
v 0.064418 -0.000126 0.001000
vt -0.000000 0.000000 0.000000
vt 0.314706 0.000000 0.000000
vt -0.000000 0.100000 0.000000
vt 0.314706 0.100000 0.000000
vt 0.000000 0.000000 0.000000
vt 0.412992 0.000000 0.000000
vt 0.000000 0.100000 0.000000
vt 0.412992 0.100000 0.000000
vt -0.000000 0.000000 0.000000
vt 0.267437 0.000000 0.000000
vt -0.000000 0.100000 0.000000
vt 0.267437 0.100000 0.000000
vt 0.000000 0.000000 0.000000
vt 0.506139 0.000000 0.000000
vt 0.000000 0.100000 0.000000
vt 0.506139 0.100000 0.000000
vt -0.000000 0.000000 0.000000
vt 0.228513 0.000000 0.000000
vt -0.000000 0.100000 0.000000
vt 0.228513 0.100000 0.000000
vt -0.000000 0.000000 0.000000
vt 0.786221 0.000000 0.000000
vt -0.000000 0.100000 0.000000
vt 0.786221 0.100000 0.000000
vt -0.000000 0.000000 0.000000
vt 0.242156 0.000000 0.000000
vt -0.000000 0.100000 0.000000
vt 0.242156 0.100000 0.000000
vt 0.000000 0.000000 0.000000
vt 0.614598 0.000000 0.000000
vt 0.000000 0.100000 0.000000
vt 0.614598 0.100000 0.000000
vt -0.000000 0.000000 0.000000
vt 0.125512 0.000000 0.000000
vt -0.000000 0.100000 0.000000
vt 0.125512 0.100000 0.000000
vt 0.000000 0.000000 0.000000
vt 0.215553 0.000000 0.000000
vt 0.000000 0.100000 0.000000
vt 0.215553 0.100000 0.000000
vt 0.000000 0.000000 0.000000
vt 0.125512 0.000000 0.000000
vt 0.000000 0.100000 0.000000
vt 0.125512 0.100000 0.000000
vt 0.000000 0.000000 0.000000
vt 0.186903 0.000000 0.000000
vt 0.000000 0.100000 0.000000
vt 0.186903 0.100000 0.000000
vt 0.000000 0.000000 0.000000
vt 0.242156 0.000000 0.000000
vt 0.000000 0.100000 0.000000
vt 0.242156 0.100000 0.000000
vt -0.000000 0.000000 0.000000
vt 0.186903 0.000000 0.000000
vt -0.000000 0.100000 0.000000
vt 0.186903 0.100000 0.000000
vt -9.689631 1.517735 0.000000
vt -9.447476 1.517735 0.000000
vt -9.689631 1.704639 0.000000
vt -9.447476 1.704639 0.000000
vt -9.689631 1.920191 0.000000
vt -9.447476 1.920191 0.000000
vt -9.689631 2.234897 0.000000
vt -9.447476 2.534789 0.000000
vt -9.689631 2.534789 0.000000
vt -9.321964 1.704639 0.000000
vt -9.321964 1.920191 0.000000
vt -10.195770 1.933152 0.000000
vt -9.957068 1.920191 0.000000
vt -10.195770 1.704639 0.000000
vt 9.447476 1.517735 0.000000
vt 9.689631 1.517735 0.000000
vt 9.447476 1.704639 0.000000
vt 9.689631 1.704639 0.000000
vt 9.447476 1.920191 0.000000
vt 9.689631 1.920191 0.000000
vt 9.689631 2.234897 0.000000
vt 9.957068 1.920191 0.000000
vt 10.195770 1.704639 0.000000
vt 10.195770 1.933152 0.000000
vt 9.689631 2.534789 0.000000
vt 9.447476 2.534789 0.000000
vt 9.321964 1.920191 0.000000
vt 9.321964 1.704639 0.000000
vn -100.000000 0.000000 0.000000
vn -100.000000 0.000000 0.000000
vn -100.000000 0.000000 0.000000
vn -100.000000 0.000000 0.000000
vn 76.201529 -64.755904 0.000000
vn 76.201529 -64.755904 0.000000
vn 76.201529 -64.755904 0.000000
vn 76.201529 -64.755904 0.000000
vn 0.000000 100.000000 0.000000
vn 0.000000 100.000000 0.000000
vn 0.000000 100.000000 0.000000
vn 0.000000 100.000000 0.000000
vn 0.000000 -100.000000 0.000000
vn 0.000000 -100.000000 0.000000
vn 0.000000 -100.000000 0.000000
vn 0.000000 -100.000000 0.000000
vn -100.000000 0.000000 0.000000
vn -100.000000 0.000000 0.000000
vn -100.000000 0.000000 0.000000
vn -100.000000 0.000000 0.000000
vn -76.522617 64.376153 0.000000
vn -76.522617 64.376153 0.000000
vn -76.522617 64.376153 0.000000
vn -76.522617 64.376153 0.000000
vn 0.000000 100.000000 0.000000
vn 0.000000 100.000000 0.000000
vn 0.000000 100.000000 0.000000
vn 0.000000 100.000000 0.000000
vn 100.000000 0.000000 0.000000
vn 100.000000 0.000000 0.000000
vn 100.000000 0.000000 0.000000
vn 100.000000 0.000000 0.000000
vn 0.000000 100.000000 0.000000
vn 0.000000 100.000000 0.000000
vn 0.000000 100.000000 0.000000
vn 0.000000 100.000000 0.000000
vn 100.000000 0.000000 0.000000
vn 100.000000 0.000000 0.000000
vn 100.000000 0.000000 0.000000
vn 100.000000 0.000000 0.000000
vn 0.000000 -100.000000 0.000000
vn 0.000000 -100.000000 0.000000
vn 0.000000 -100.000000 0.000000
vn 0.000000 -100.000000 0.000000
vn 100.000000 0.000000 0.000000
vn 100.000000 0.000000 0.000000
vn 100.000000 0.000000 0.000000
vn 100.000000 0.000000 0.000000
vn 0.000000 -100.000000 0.000000
vn 0.000000 -100.000000 0.000000
vn 0.000000 -100.000000 0.000000
vn 0.000000 -100.000000 0.000000
vn -100.000000 0.000000 0.000000
vn -100.000000 0.000000 0.000000
vn -100.000000 0.000000 0.000000
vn -100.000000 0.000000 0.000000
vn 0.000000 0.000000 100.000000
vn 0.000000 0.000000 100.000000
vn 0.000000 0.000000 100.000000
vn 0.000000 0.000000 100.000000
vn 0.000000 0.000000 100.000000
vn 0.000000 0.000000 100.000000
vn 0.000000 0.000000 100.000000
vn 0.000000 0.000000 100.000000
vn 0.000000 0.000000 100.000000
vn 0.000000 0.000000 100.000000
vn 0.000000 0.000000 100.000000
vn 0.000000 0.000000 100.000000
vn 0.000000 0.000000 100.000000
vn 0.000000 0.000000 100.000000
vn 0.000000 0.000000 -100.000000
vn 0.000000 0.000000 -100.000000
vn 0.000000 0.000000 -100.000000
vn 0.000000 0.000000 -100.000000
vn 0.000000 0.000000 -100.000000
vn 0.000000 0.000000 -100.000000
vn 0.000000 0.000000 -100.000000
vn 0.000000 0.000000 -100.000000
vn 0.000000 0.000000 -100.000000
vn 0.000000 0.000000 -100.000000
vn 0.000000 0.000000 -100.000000
vn 0.000000 0.000000 -100.000000
vn 0.000000 0.000000 -100.000000
vn 0.000000 0.000000 -100.000000
usemtl Steel_-_Satin
f 1/1/1 2/2/2 4/3/3
f 4/3/3 2/2/2 3/4/4
f 5/5/5 1/6/6 6/7/7
f 6/7/7 1/6/6 4/8/8
f 2/9/9 5/10/10 3/11/11
f 3/11/11 5/10/10 6/12/12
f 7/13/13 8/14/14 10/15/15
f 10/15/15 8/14/14 9/16/16
f 11/17/17 7/18/18 12/19/19
f 12/19/19 7/18/18 10/20/20
f 13/21/21 11/22/22 14/23/23
f 14/23/23 11/22/22 12/24/24
f 15/25/25 13/26/26 16/27/27
f 16/27/27 13/26/26 14/28/28
f 17/29/29 15/30/30 18/31/31
f 18/31/31 15/30/30 16/32/32
f 19/33/33 17/34/34 20/35/35
f 20/35/35 17/34/34 18/36/36
f 21/37/37 19/38/38 22/39/39
f 22/39/39 19/38/38 20/40/40
f 23/41/41 21/42/42 24/43/43
f 24/43/43 21/42/42 22/44/44
f 25/45/45 23/46/46 26/47/47
f 26/47/47 23/46/46 24/48/48
f 27/49/49 25/50/50 28/51/51
f 28/51/51 25/50/50 26/52/52
f 8/53/53 27/54/54 9/55/55
f 9/55/55 27/54/54 28/56/56
f 28/57/57 26/58/58 9/59/59
f 9/59/59 26/58/58 24/60/60
f 9/59/59 24/60/60 3/61/61
f 3/61/61 24/60/60 18/62/62
f 3/61/61 18/62/62 4/63/63
f 4/63/63 18/62/62 16/64/64
f 4/63/63 16/64/64 14/65/65
f 24/60/60 22/66/66 18/62/62
f 18/62/62 22/66/66 20/67/67
f 14/65/65 12/68/68 4/63/63
f 4/63/63 12/68/68 6/69/69
f 6/69/69 12/68/68 10/70/70
f 6/69/69 10/70/70 9/59/59
f 3/61/61 6/69/69 9/59/59
f 25/71/71 27/72/72 23/73/73
f 23/73/73 27/72/72 8/74/74
f 23/73/73 8/74/74 17/75/75
f 17/75/75 8/74/74 2/76/76
f 17/75/75 2/76/76 1/77/77
f 2/76/76 8/74/74 5/78/78
f 5/78/78 8/74/74 7/79/79
f 5/78/78 7/79/79 11/80/80
f 5/78/78 11/80/80 1/77/77
f 1/77/77 11/80/80 13/81/81
f 1/77/77 13/81/81 15/82/82
f 15/82/82 17/75/75 1/77/77
f 17/75/75 19/83/83 23/73/73
f 23/73/73 19/83/83 21/84/84
# 28 vertices
# 84 texture params
# 84 normals
# 56 facets

# 1 groups
