# WaveFront *.obj file (generated by Autodesk ATF)

mtllib Untitled2.mtl

g Body1

v 24.765000 3.810000 0.000000
v 16.510000 3.810000 0.000000
v 8.255000 3.810000 0.000000
v 0.000000 3.810000 0.000000
v 0.000000 3.810000 1.270000
v 8.255000 3.810000 1.270000
v 16.510000 3.810000 1.270000
v 24.765000 3.810000 1.270000
v 24.765000 0.000000 0.000000
v 24.765000 0.000000 1.270000
v 0.000000 0.000000 0.000000
v 8.255000 0.000000 0.000000
v 16.510000 0.000000 0.000000
v 16.510000 0.000000 1.270000
v 8.255000 0.000000 1.270000
v 0.000000 0.000000 1.270000
vt 0.000000 0.000000 0.000000
vt 8.255000 0.000000 0.000000
vt 0.000000 1.270000 0.000000
vt 8.255000 1.270000 0.000000
vt 16.510000 0.000000 0.000000
vt 16.510000 1.270000 0.000000
vt 24.765000 0.000000 0.000000
vt 24.765000 1.270000 0.000000
vt 0.000000 0.000000 0.000000
vt 3.810000 0.000000 0.000000
vt 0.000000 1.270000 0.000000
vt 3.810000 1.270000 0.000000
vt 0.000000 0.000000 0.000000
vt 8.255000 0.000000 0.000000
vt 0.000000 1.270000 0.000000
vt 8.255000 1.270000 0.000000
vt 16.510000 0.000000 0.000000
vt 16.510000 1.270000 0.000000
vt 24.765000 0.000000 0.000000
vt 24.765000 1.270000 0.000000
vt 0.000000 0.000000 0.000000
vt 3.810000 0.000000 0.000000
vt 0.000000 1.270000 0.000000
vt 3.810000 1.270000 0.000000
vt -12.382500 -1.905000 0.000000
vt -4.127500 -1.905000 0.000000
vt -12.382500 1.905000 0.000000
vt -4.127500 1.905000 0.000000
vt 4.127500 -1.905000 0.000000
vt 4.127500 1.905000 0.000000
vt 12.382500 -1.905000 0.000000
vt 12.382500 1.905000 0.000000
vt 12.382500 1.905000 0.000000
vt 4.127500 1.905000 0.000000
vt 12.382500 -1.905000 0.000000
vt 4.127500 -1.905000 0.000000
vt -4.127500 1.905000 0.000000
vt -4.127500 -1.905000 0.000000
vt -12.382500 1.905000 0.000000
vt -12.382500 -1.905000 0.000000
vn 0.000000 1.000000 -0.000000
vn 0.000000 1.000000 -0.000000
vn 0.000000 1.000000 -0.000000
vn 0.000000 1.000000 -0.000000
vn 0.000000 1.000000 -0.000000
vn 0.000000 1.000000 -0.000000
vn 0.000000 1.000000 -0.000000
vn 0.000000 1.000000 -0.000000
vn 1.000000 0.000000 0.000000
vn 1.000000 0.000000 0.000000
vn 1.000000 0.000000 0.000000
vn 1.000000 0.000000 0.000000
vn 0.000000 -1.000000 0.000000
vn 0.000000 -1.000000 0.000000
vn 0.000000 -1.000000 0.000000
vn 0.000000 -1.000000 0.000000
vn 0.000000 -1.000000 0.000000
vn 0.000000 -1.000000 0.000000
vn 0.000000 -1.000000 0.000000
vn 0.000000 -1.000000 0.000000
vn -1.000000 0.000000 0.000000
vn -1.000000 0.000000 0.000000
vn -1.000000 0.000000 0.000000
vn -1.000000 0.000000 0.000000
vn 0.000000 0.000000 1.000000
vn 0.000000 0.000000 1.000000
vn 0.000000 0.000000 1.000000
vn 0.000000 0.000000 1.000000
vn 0.000000 0.000000 1.000000
vn 0.000000 0.000000 1.000000
vn 0.000000 0.000000 1.000000
vn 0.000000 0.000000 1.000000
vn -0.000000 -0.000000 -1.000000
vn -0.000000 -0.000000 -1.000000
vn -0.000000 -0.000000 -1.000000
vn -0.000000 -0.000000 -1.000000
vn -0.000000 -0.000000 -1.000000
vn -0.000000 -0.000000 -1.000000
vn -0.000000 -0.000000 -1.000000
vn -0.000000 -0.000000 -1.000000
usemtl Steel_-_Satin
f 1/1/1 2/2/2 8/3/3
f 8/3/3 2/2/2 7/4/4
f 7/4/4 2/2/2 3/5/5
f 7/4/4 3/5/5 6/6/6
f 6/6/6 3/5/5 4/7/7
f 6/6/6 4/7/7 5/8/8
f 9/9/9 1/10/10 10/11/11
f 10/11/11 1/10/10 8/12/12
f 11/13/13 12/14/14 16/15/15
f 16/15/15 12/14/14 15/16/16
f 15/16/16 12/14/14 13/17/17
f 15/16/16 13/17/17 14/18/18
f 14/18/18 13/17/17 9/19/19
f 14/18/18 9/19/19 10/20/20
f 4/21/21 11/22/22 5/23/23
f 5/23/23 11/22/22 16/24/24
f 16/25/25 15/26/26 5/27/27
f 5/27/27 15/26/26 6/28/28
f 6/28/28 15/26/26 14/29/29
f 6/28/28 14/29/29 7/30/30
f 7/30/30 14/29/29 10/31/31
f 7/30/30 10/31/31 8/32/32
f 4/33/33 3/34/34 11/35/35
f 11/35/35 3/34/34 12/36/36
f 12/36/36 3/34/34 2/37/37
f 12/36/36 2/37/37 13/38/38
f 13/38/38 2/37/37 1/39/39
f 13/38/38 1/39/39 9/40/40
# 16 vertices
# 40 texture params
# 40 normals
# 28 facets

# 1 groups
