# Wavefront Obj file
# 
# verts: 39 uv-s: 88
mtllib Sharik.mtl

g Cone
#pivot 0.000000 0.000000 0.000000

v 0.000000 1.626785 0.225665
v -0.002941 1.263799 -0.015452
v 0.195432 1.626785 -0.112832
v -0.195432 1.626785 -0.112832
v -0.024253 0.725066 0.547210
v 0.463455 0.770517 0.419888
v -0.001687 -0.005654 0.779289
v -0.009755 -0.761110 0.776110
v 0.474290 -0.783668 0.493072
v 0.727978 -0.001814 0.733532
v 0.000000 -1.114509 0.000000
v 0.794613 0.786188 -0.009013
v 0.870272 -0.840928 0.030790
v 1.200613 0.005633 0.003978
v 0.570464 0.793921 -0.583987
v 0.624709 -0.838021 -0.601975
v 0.809992 0.000000 -0.809992
v -0.008229 0.785058 -0.796419
v 0.013465 -0.813436 -0.837400
v 0.000000 0.000000 -1.084508
v -0.590186 0.807046 -0.568161
v -0.523801 -0.736982 -0.523877
v -0.717825 0.000000 -0.717825
v -0.726950 -0.724681 0.000000
v -0.729632 0.724176 0.007138
v -0.826317 -0.002036 0.018949
v -0.522799 0.011118 0.519035
v -0.394758 0.727265 0.360138
v -0.519162 -0.732407 0.521003
# 29 positions

vt 0.347378 0.089731
vt 0.348377 0.005000
vt 0.280961 0.052783
vt 0.363305 0.259473
vt 0.297485 0.297475
vt 0.297485 0.221472
vt 0.011610 0.087612
vt 0.084687 0.049039
vt 0.011610 0.011610
vt 0.072000 0.298415
vt 0.006008 0.249564
vt 0.005000 0.334295
vt 0.885592 0.410697
vt 0.995000 0.406553
vt 0.970243 0.501386
vt 0.623549 0.156283
vt 0.621980 0.009386
vt 0.716101 0.005000
vt 0.765430 0.157030
vt 0.619161 0.298370
vt 0.713995 0.307207
vt 0.005000 0.176119
vt 0.155913 0.174222
vt 0.060036 0.081998
vt 0.886844 0.565779
vt 0.429252 0.574485
vt 0.277223 0.527728
vt 0.266089 0.437839
vt 0.430700 0.432625
vt 0.579430 0.513498
vt 0.582477 0.430099
vt 0.149926 0.005000
vt 0.775042 0.522194
vt 0.266654 0.314799
vt 0.429605 0.274351
vt 0.583981 0.318297
vt 0.272965 0.052749
vt 0.733735 0.409669
vt 0.005000 0.692368
vt 0.041028 0.855319
vt 0.159883 0.850538
vt 0.162501 0.692368
vt 0.051576 0.537992
vt 0.164101 0.539715
vt 0.318743 0.171604
vt 0.778119 0.296508
vt 0.264353 0.835672
vt 0.302080 0.692368
vt 0.277261 0.535440
vt 0.257779 0.276074
vt 0.155913 0.315576
vt 0.889984 0.269394
vt 0.670886 0.787894
vt 0.814190 0.750181
vt 0.811798 0.648314
vt 0.671282 0.644630
vt 0.513958 0.758792
vt 0.530071 0.646927
vt 0.668724 0.547389
vt 0.529471 0.578287
vt 0.054605 0.275172
vt 0.958624 0.334509
vt 0.813300 0.547007
vt 0.547117 0.298797
vt 0.522220 0.159544
vt 0.522927 0.014968
# 66 texture coordinates

vn 0.820141 -0.321179 0.473510
vn 0.000000 1.000000 0.000000
vn 0.000000 -0.259112 -0.965847
vn -0.823591 -0.309184 0.475502
vn 0.113287 0.715502 0.689364
vn 0.253759 -0.193408 0.947734
vn 0.117147 0.358622 0.926103
vn 0.197222 -0.891279 0.408320
vn 0.470312 0.790650 0.392020
vn 0.752073 -0.343527 0.562473
vn 0.738369 0.428381 0.520866
vn 0.270606 -0.899435 0.343204
vn 0.505915 0.842313 -0.185899
vn 0.867874 -0.318758 -0.381036
vn 0.840373 0.394792 -0.371366
vn 0.301582 -0.945682 -0.121382
vn 0.176319 0.838671 -0.515308
vn 0.319630 -0.282511 -0.904447
vn 0.309510 0.337951 -0.888815
vn 0.091552 -0.937543 -0.335606
vn -0.169916 0.840675 -0.514192
vn -0.468680 -0.299169 -0.831166
vn -0.396842 0.270897 -0.877001
vn -0.316686 -0.890960 -0.325422
vn -0.466465 -0.869863 -0.160461
vn -0.596509 0.802081 -0.029050
vn -0.947759 -0.218380 -0.232514
vn -0.972109 0.157823 -0.173483
vn -0.787493 0.192009 0.585651
vn -0.465482 -0.868030 0.172773
vn -0.513144 0.711150 0.480572
vn -0.891956 -0.067840 0.447004
vn -0.427927 0.264716 0.864178
vn -0.249399 -0.882512 0.398714
vn -0.323124 0.689636 0.648068
vn -0.447263 0.000600 0.894402
# 36 normals

usemtl None
s 1
f 1/1/1 2/2/1 3/3/1
s 2
f 1/4/2 3/5/2 4/6/2
s 3
f 3/7/3 2/8/3 4/9/3
s 4
f 4/10/4 2/11/4 1/12/4
s 5
f 2/13/5 5/14/5 6/15/5
s 6
f 7/16/6 8/17/6 9/18/6 10/19/6
s 7
f 5/20/7 7/16/7 10/19/7 6/21/7
s 8
f 8/22/8 11/23/8 9/24/8
s 9
f 2/13/9 6/15/9 12/25/9
s 10
f 10/26/10 9/27/10 13/28/10 14/29/10
s 11
f 6/30/11 10/26/11 14/29/11 12/31/11
s 12
f 9/24/12 11/23/12 13/32/12
s 13
f 2/13/13 12/25/13 15/33/13
s 14
f 14/29/14 13/28/14 16/34/14 17/35/14
s 15
f 12/31/15 14/29/15 17/35/15 15/36/15
s 16
f 13/32/16 11/23/16 16/37/16
s 17
f 2/13/17 15/33/17 18/38/17
s 18
f 17/39/18 16/40/18 19/41/18 20/42/18
s 19
f 15/43/19 17/39/19 20/42/19 18/44/19
s 20
f 16/37/20 11/23/20 19/45/20
s 21
f 2/13/21 18/38/21 21/46/21
s 22
f 20/42/22 19/41/22 22/47/22 23/48/22
s 23
f 18/44/23 20/42/23 23/48/23 21/49/23
s 24
f 19/45/24 11/23/24 22/50/24
s 25
f 22/50/25 11/23/25 24/51/25
s 26
f 2/13/26 21/46/26 25/52/26
s 27
f 23/53/27 22/54/27 24/55/27 26/56/27
s 28
f 21/57/28 23/53/28 26/56/28 25/58/28
s 29
f 25/58/29 26/56/29 27/59/29 28/60/29
s 30
f 24/51/30 11/23/30 29/61/30
s 31
f 2/13/31 25/52/31 28/62/31
s 32
f 26/56/32 24/55/32 29/63/32 27/59/32
s 33
f 28/64/33 27/65/33 7/16/33 5/20/33
s 34
f 29/61/34 11/23/34 8/22/34
s 35
f 2/13/35 28/62/35 5/14/35
s 36
f 27/65/36 29/66/36 8/17/36 7/16/36

g Sphere
#pivot 0.000000 0.000000 0.000000

v -0.005434 1.359113 -0.016533
v -0.005434 1.318158 0.054404
v 0.065504 1.318158 -0.016533
v -0.005434 1.236246 0.054404
v 0.065504 1.236246 -0.016533
v -0.005434 1.195290 -0.016533
v -0.005434 1.318158 -0.087471
v -0.005434 1.236246 -0.087471
v -0.076372 1.318158 -0.016533
v -0.076372 1.236246 -0.016533
# 10 positions

vt 0.073325 0.018794
vt 0.087118 0.018794
vt 0.073325 0.032587
vt 0.018794 0.110160
vt 0.018794 0.094233
vt 0.032587 0.094233
vt 0.032587 0.110160
vt 0.233039 0.018794
vt 0.246833 0.018794
vt 0.246833 0.005000
vt 0.059531 0.018794
vt 0.267741 0.013262
vt 0.267741 0.029190
vt 0.281535 0.029190
vt 0.281535 0.013262
vt 0.260627 0.018794
vt 0.073325 0.005000
vt 0.295328 0.029190
vt 0.295328 0.013262
vt 0.246833 0.032587
vt 0.005000 0.110160
vt 0.005000 0.094233
# 22 texture coordinates

vn 0.447204 0.774604 0.447210
vn 0.707102 0.000000 0.707112
vn 0.447212 -0.774595 0.447218
vn 0.447205 0.774606 -0.447205
vn 0.707107 0.000000 -0.707107
vn 0.447213 -0.774597 -0.447213
vn -0.447205 0.774606 -0.447205
vn -0.707107 0.000000 -0.707107
vn -0.447213 -0.774597 -0.447213
vn -0.447204 0.774604 0.447210
vn -0.707102 0.000000 0.707112
vn -0.447212 -0.774595 0.447218
# 12 normals

usemtl None
s 37
f 30/67/37 31/68/37 32/69/37
s 38
f 31/70/38 33/71/38 34/72/38 32/73/38
s 39
f 33/74/39 35/75/39 34/76/39
s 40
f 30/67/40 32/69/40 36/77/40
s 41
f 32/78/41 34/79/41 37/80/41 36/81/41
s 42
f 34/76/42 35/75/42 37/82/42
s 43
f 30/67/43 36/77/43 38/83/43
s 44
f 36/81/44 37/80/44 39/84/44 38/85/44
s 45
f 37/82/45 35/75/45 39/86/45
s 46
f 30/67/46 38/83/46 31/68/46
s 47
f 38/87/47 39/88/47 33/71/47 31/70/47
s 48
f 39/86/48 35/75/48 33/74/48

# 48 faces
