# Tiled2Unity generated file. Do not modify by hand.
# Wavefront file for 'Chapter1_mesh_0131.obj'

# Vertices (Count = 16)
v -112 -32 0
v -144 -32 0
v -144 0 0
v -112 0 0
v -144 -32 0
v -176 -32 0
v -176 0 0
v -144 0 0
v -112 -64 0
v -144 -64 0
v -144 -32 0
v -112 -32 0
v -144 -64 0
v -176 -64 0
v -176 -32 0
v -144 -32 0

# Texture cooridinates (Count = 9)
vt 0.125 0.25
vt 0.25 0.25
vt 0.25 0.5
vt 0.125 0.5
vt 0.375 0.25
vt 0.375 0.5
vt 0.125 0
vt 0.25 0
vt 0.375 0

# Normal
vn 0 0 -1

# Mesh description
g Chapter1_mesh_0131

# Faces
f 1/1/1 2/2/1 3/3/1 4/4/1
f 5/2/1 6/5/1 7/6/1 8/3/1
f 9/7/1 10/8/1 11/2/1 12/1/1
f 13/8/1 14/9/1 15/5/1 16/2/1

