# Tiled2Unity generated file. Do not modify by hand.
# Wavefront file for 'Chapter1_mesh_0071.obj'

# Vertices (Count = 20)
v -192 -192 0
v -448 -192 0
v -448 64 0
v -192 64 0
v -192 -208 0
v -448 -208 0
v -448 48 0
v -192 48 0
v -192 -224 0
v -448 -224 0
v -448 32 0
v -192 32 0
v -224 -256 0
v -480 -256 0
v -480 0 0
v -224 0 0
v -240 -256 0
v -496 -256 0
v -496 0 0
v -240 0 0

# Texture cooridinates (Count = 4)
vt 0 0.2
vt 0.5 0.2
vt 0.5 1
vt 0 1

# Normal
vn 0 0 -1

# Mesh description
g Chapter1_mesh_0071

# Faces
f 1/1/1 2/2/1 3/3/1 4/4/1
f 5/1/1 6/2/1 7/3/1 8/4/1
f 9/1/1 10/2/1 11/3/1 12/4/1
f 13/1/1 14/2/1 15/3/1 16/4/1
f 17/1/1 18/2/1 19/3/1 20/4/1

