# Tiled2Unity generated file. Do not modify by hand.
# Wavefront file for 'Castillo_mesh_0028.obj'

# Vertices (Count = 16)
v -12 -9 0
v -13 -9 0
v -13 -8 0
v -12 -8 0
v -13 -9 0
v -14 -9 0
v -14 -8 0
v -13 -8 0
v -12 -10 0
v -13 -10 0
v -13 -9 0
v -12 -9 0
v -13 -10 0
v -14 -10 0
v -14 -9 0
v -13 -9 0

# Texture cooridinates (Count = 9)
vt 0.225 0.1666667
vt 0.25 0.1666667
vt 0.25 0.1944444
vt 0.225 0.1944444
vt 0.275 0.1666667
vt 0.275 0.1944444
vt 0.225 0.1388889
vt 0.25 0.1388889
vt 0.275 0.1388889

# Normal
vn 0 0 -1

# Mesh description
g Castillo_mesh_0028

# Faces
f 1/1/1 2/2/1 3/3/1 4/4/1
f 5/2/1 6/5/1 7/6/1 8/3/1
f 9/7/1 10/8/1 11/2/1 12/1/1
f 13/8/1 14/9/1 15/5/1 16/2/1

