# Tiled2Unity generated file. Do not modify by hand.
# Wavefront file for 'Castillo_mesh_0010.obj'

# Vertices (Count = 16)
v -21 -4 0
v -22 -4 0
v -22 -3 0
v -21 -3 0
v -22 -4 0
v -23 -4 0
v -23 -3 0
v -22 -3 0
v -21 -5 0
v -22 -5 0
v -22 -4 0
v -21 -4 0
v -22 -5 0
v -23 -5 0
v -23 -4 0
v -22 -4 0

# Texture cooridinates (Count = 9)
vt 0.3076923 0.96875
vt 0.3461539 0.96875
vt 0.3461539 1
vt 0.3076923 1
vt 0.3846154 0.96875
vt 0.3846154 1
vt 0.3076923 0.9375
vt 0.3461539 0.9375
vt 0.3846154 0.9375

# Normal
vn 0 0 -1

# Mesh description
g Castillo_mesh_0010

# Faces
f 1/1/1 2/2/1 3/3/1 4/4/1
f 5/2/1 6/5/1 7/6/1 8/3/1
f 9/7/1 10/8/1 11/2/1 12/1/1
f 13/8/1 14/9/1 15/5/1 16/2/1

