# Tiled2Unity generated file. Do not modify by hand.
# Wavefront file for 'Cueva-2f_mesh_0003.obj'

# Vertices (Count = 32)
v -11 -3 0
v -12 -3 0
v -12 -2 0
v -11 -2 0
v -12 -3 0
v -13 -3 0
v -13 -2 0
v -12 -2 0
v -11 -4 0
v -12 -4 0
v -12 -3 0
v -11 -3 0
v -12 -4 0
v -13 -4 0
v -13 -3 0
v -12 -3 0
v -2 -5 0
v -3 -5 0
v -3 -4 0
v -2 -4 0
v -22 -5 0
v -23 -5 0
v -23 -4 0
v -22 -4 0
v -2 -17 0
v -3 -17 0
v -3 -16 0
v -2 -16 0
v -22 -17 0
v -23 -17 0
v -23 -16 0
v -22 -16 0

# Texture cooridinates (Count = 13)
vt 0.925 0.8333333
vt 0.95 0.8333333
vt 0.95 0.8611111
vt 0.925 0.8611111
vt 0.975 0.8333333
vt 0.975 0.8611111
vt 0.925 0.8055556
vt 0.95 0.8055556
vt 0.975 0.8055556
vt 0.875 0.9166667
vt 0.9 0.9166667
vt 0.9 0.9444444
vt 0.875 0.9444444

# Normal
vn 0 0 -1

# Mesh description
g Cueva-2f_mesh_0003

# Faces
f 1/1/1 2/2/1 3/3/1 4/4/1
f 5/2/1 6/5/1 7/6/1 8/3/1
f 9/7/1 10/8/1 11/2/1 12/1/1
f 13/8/1 14/9/1 15/5/1 16/2/1
f 17/10/1 18/11/1 19/12/1 20/13/1
f 21/10/1 22/11/1 23/12/1 24/13/1
f 25/10/1 26/11/1 27/12/1 28/13/1
f 29/10/1 30/11/1 31/12/1 32/13/1

