# Tiled2Unity generated file. Do not modify by hand.
# Wavefront file for 'Cueva-2fb_mesh_0007.obj'

# Vertices (Count = 48)
v -6 -6 0
v -7 -6 0
v -7 -5 0
v -6 -5 0
v -6 -8 0
v -7 -8 0
v -7 -7 0
v -6 -7 0
v -18 -12 0
v -19 -12 0
v -19 -11 0
v -18 -11 0
v -6 -14 0
v -7 -14 0
v -7 -13 0
v -6 -13 0
v -8 -15 0
v -9 -15 0
v -9 -14 0
v -8 -14 0
v -20 -15 0
v -21 -15 0
v -21 -14 0
v -20 -14 0
v -17 -17 0
v -18 -17 0
v -18 -16 0
v -17 -16 0
v -21 -17 0
v -22 -17 0
v -22 -16 0
v -21 -16 0
v -9 -18 0
v -10 -18 0
v -10 -17 0
v -9 -17 0
v -16 -19 0
v -17 -19 0
v -17 -18 0
v -16 -18 0
v -19 -19 0
v -20 -19 0
v -20 -18 0
v -19 -18 0
v -16 -22 0
v -17 -22 0
v -17 -21 0
v -16 -21 0

# Texture cooridinates (Count = 4)
vt 0.15 0.64
vt 0.175 0.64
vt 0.175 0.68
vt 0.15 0.68

# Normal
vn 0 0 -1

# Mesh description
g Cueva-2fb_mesh_0007

# Faces
f 1/1/1 2/2/1 3/3/1 4/4/1
f 5/1/1 6/2/1 7/3/1 8/4/1
f 9/1/1 10/2/1 11/3/1 12/4/1
f 13/1/1 14/2/1 15/3/1 16/4/1
f 17/1/1 18/2/1 19/3/1 20/4/1
f 21/1/1 22/2/1 23/3/1 24/4/1
f 25/1/1 26/2/1 27/3/1 28/4/1
f 29/1/1 30/2/1 31/3/1 32/4/1
f 33/1/1 34/2/1 35/3/1 36/4/1
f 37/1/1 38/2/1 39/3/1 40/4/1
f 41/1/1 42/2/1 43/3/1 44/4/1
f 45/1/1 46/2/1 47/3/1 48/4/1

