# 3ds Max Wavefront OBJ Exporter v0.97b - (c)2007 guruware
# File Created: 26.04.2015 20:55:13

mtllib Cylinder_4Side.mtl

#
# object BuffCylinder02
#

v  2.6189 0.0000 0.0000
v  2.5297 0.6778 0.0000
v  2.5297 0.6778 3.5849
v  2.6189 0.0000 3.5849
v  2.2680 1.3094 0.0000
v  2.2680 1.3094 3.5849
v  1.8518 1.8518 0.0000
v  1.8518 1.8518 3.5849
v  1.3094 2.2680 0.0000
v  1.3094 2.2680 3.5849
v  0.6778 2.5297 0.0000
v  0.6778 2.5297 3.5849
v  0.0000 2.6189 0.0000
v  0.0000 2.6189 3.5849
v  -0.6778 2.5297 0.0000
v  -0.6778 2.5297 3.5849
v  -1.3094 2.2680 0.0000
v  -1.3094 2.2680 3.5849
v  -1.8518 1.8518 0.0000
v  -1.8518 1.8518 3.5849
v  -2.2680 1.3094 0.0000
v  -2.2680 1.3094 3.5849
v  -2.5297 0.6778 0.0000
v  -2.5297 0.6778 3.5849
v  -2.6189 0.0000 0.0000
v  -2.6189 0.0000 3.5849
v  -2.5297 -0.6778 0.0000
v  -2.5297 -0.6778 3.5849
v  -2.2680 -1.3094 0.0000
v  -2.2680 -1.3094 3.5849
v  -1.8518 -1.8518 0.0000
v  -1.8518 -1.8518 3.5849
v  -1.3094 -2.2680 0.0000
v  -1.3094 -2.2680 3.5849
v  -0.6778 -2.5297 0.0000
v  -0.6778 -2.5297 3.5849
v  -0.0000 -2.6189 0.0000
v  -0.0000 -2.6189 3.5849
v  0.6778 -2.5297 0.0000
v  0.6778 -2.5297 3.5849
v  1.3094 -2.2680 0.0000
v  1.3094 -2.2680 3.5849
v  1.8518 -1.8518 0.0000
v  1.8518 -1.8518 3.5849
v  2.2680 -1.3094 0.0000
v  2.2680 -1.3094 3.5849
v  2.5297 -0.6778 0.0000
v  2.5297 -0.6778 3.5849
v  2.5949 -0.0000 0.0000
v  2.5949 -0.0000 3.5849
v  2.5065 0.6716 3.5849
v  2.5065 0.6716 0.0000
v  2.2472 1.2974 3.5849
v  2.2472 1.2974 0.0000
v  1.8349 1.8349 3.5849
v  1.8349 1.8349 0.0000
v  1.2974 2.2472 3.5849
v  1.2974 2.2472 0.0000
v  0.6716 2.5065 3.5849
v  0.6716 2.5065 0.0000
v  0.0000 2.5949 3.5849
v  0.0000 2.5949 0.0000
v  -0.6716 2.5065 3.5849
v  -0.6716 2.5065 0.0000
v  -1.2974 2.2472 3.5849
v  -1.2974 2.2472 0.0000
v  -1.8349 1.8349 3.5849
v  -1.8349 1.8349 0.0000
v  -2.2472 1.2974 3.5849
v  -2.2472 1.2974 0.0000
v  -2.5065 0.6716 3.5849
v  -2.5065 0.6716 0.0000
v  -2.5949 0.0000 3.5849
v  -2.5949 0.0000 0.0000
v  -2.5065 -0.6716 3.5849
v  -2.5065 -0.6716 0.0000
v  -2.2472 -1.2974 3.5849
v  -2.2472 -1.2974 0.0000
v  -1.8349 -1.8349 3.5849
v  -1.8349 -1.8349 0.0000
v  -1.2974 -2.2472 3.5849
v  -1.2974 -2.2472 0.0000
v  -0.6716 -2.5065 3.5849
v  -0.6716 -2.5065 0.0000
v  -0.0000 -2.5949 3.5849
v  -0.0000 -2.5949 0.0000
v  0.6716 -2.5065 3.5849
v  0.6716 -2.5065 0.0000
v  1.2974 -2.2472 3.5849
v  1.2974 -2.2472 0.0000
v  1.8349 -1.8349 3.5849
v  1.8349 -1.8349 0.0000
v  2.2472 -1.2974 3.5849
v  2.2472 -1.2974 0.0000
v  2.5065 -0.6716 3.5849
v  2.5065 -0.6716 0.0000
# 96 vertices

vn 1.0000 -0.0000 0.0000
vn 0.9659 0.2588 0.0000
vn 0.8660 0.5000 0.0000
vn 0.7071 0.7071 0.0000
vn 0.5000 0.8660 0.0000
vn 0.2588 0.9659 0.0000
vn 0.0000 1.0000 0.0000
vn -0.2588 0.9659 0.0000
vn -0.5000 0.8660 0.0000
vn -0.7071 0.7071 0.0000
vn -0.8660 0.5000 0.0000
vn -0.9659 0.2588 0.0000
vn -1.0000 0.0000 0.0000
vn -0.9659 -0.2588 0.0000
vn -0.8660 -0.5000 0.0000
vn -0.7071 -0.7071 0.0000
vn -0.5000 -0.8660 0.0000
vn -0.2588 -0.9659 0.0000
vn -0.0000 -1.0000 0.0000
vn 0.2588 -0.9659 0.0000
vn 0.5000 -0.8660 0.0000
vn 0.7071 -0.7071 0.0000
vn 0.8660 -0.5000 0.0000
vn 0.9659 -0.2588 0.0000
# 24 vertex normals

vt 0.0089 0.1207 523.7775
vt 0.1725 0.1207 523.7775
vt 0.1725 0.9759 523.7775
vt 0.0089 0.9759 523.7775
vt 0.3360 0.1207 523.7775
vt 0.3360 0.9759 523.7775
vt 0.4996 0.1207 523.7775
vt 0.4996 0.9759 523.7775
vt 0.6631 0.1207 523.7775
vt 0.6631 0.9759 523.7775
vt 0.8267 0.1207 523.7775
vt 0.8267 0.9759 523.7775
vt 0.9902 0.1207 523.7775
vt 0.9902 0.9759 523.7775
# 14 texture coords

g BuffCylinder02
usemtl 05___Default
s 8
f 1/1/1 2/2/2 3/3/2 4/4/1 
f 2/2/2 5/5/3 6/6/3 3/3/2 
f 5/5/3 7/7/4 8/8/4 6/6/3 
f 7/7/4 9/9/5 10/10/5 8/8/4 
f 9/9/5 11/11/6 12/12/6 10/10/5 
f 11/11/6 13/13/7 14/14/7 12/12/6 
f 13/1/7 15/2/8 16/3/8 14/4/7 
f 15/2/8 17/5/9 18/6/9 16/3/8 
f 17/5/9 19/7/10 20/8/10 18/6/9 
f 19/7/10 21/9/11 22/10/11 20/8/10 
f 21/9/11 23/11/12 24/12/12 22/10/11 
f 23/11/12 25/13/13 26/14/13 24/12/12 
f 25/1/13 27/2/14 28/3/14 26/4/13 
f 27/2/14 29/5/15 30/6/15 28/3/14 
f 29/5/15 31/7/16 32/8/16 30/6/15 
f 31/7/16 33/9/17 34/10/17 32/8/16 
f 33/9/17 35/11/18 36/12/18 34/10/17 
f 35/11/18 37/13/19 38/14/19 36/12/18 
f 37/1/19 39/2/20 40/3/20 38/4/19 
f 39/2/20 41/5/21 42/6/21 40/3/20 
f 41/5/21 43/7/22 44/8/22 42/6/21 
f 43/7/22 45/9/23 46/10/23 44/8/22 
f 45/9/23 47/11/24 48/12/24 46/10/23 
f 47/11/24 1/13/1 4/14/1 48/12/24 
f 49/1/13 50/4/13 51/3/14 52/2/14 
f 52/2/14 51/3/14 53/6/15 54/5/15 
f 54/5/15 53/6/15 55/8/16 56/7/16 
f 56/7/16 55/8/16 57/10/17 58/9/17 
f 58/9/17 57/10/17 59/12/18 60/11/18 
f 60/11/18 59/12/18 61/14/19 62/13/19 
f 62/1/19 61/4/19 63/3/20 64/2/20 
f 64/2/20 63/3/20 65/6/21 66/5/21 
f 66/5/21 65/6/21 67/8/22 68/7/22 
f 68/7/22 67/8/22 69/10/23 70/9/23 
f 70/9/23 69/10/23 71/12/24 72/11/24 
f 72/11/24 71/12/24 73/14/1 74/13/1 
f 74/1/1 73/4/1 75/3/2 76/2/2 
f 76/2/2 75/3/2 77/6/3 78/5/3 
f 78/5/3 77/6/3 79/8/4 80/7/4 
f 80/7/4 79/8/4 81/10/5 82/9/5 
f 82/9/5 81/10/5 83/12/6 84/11/6 
f 84/11/6 83/12/6 85/14/7 86/13/7 
f 86/1/7 85/4/7 87/3/8 88/2/8 
f 88/2/8 87/3/8 89/6/9 90/5/9 
f 90/5/9 89/6/9 91/8/10 92/7/10 
f 92/7/10 91/8/10 93/10/11 94/9/11 
f 94/9/11 93/10/11 95/12/12 96/11/12 
f 96/11/12 95/12/12 50/14/13 49/13/13 
# 48 polygons

