# 3ds Max Wavefront OBJ Exporter v0.99 - (c)2007 guruware
# File Created: 05.09.2024 13:35:05

mtllib Warrant.mtl

#
# object warrant_Frame
#

v  -6614.3535 1085.4623 -3041.9150
v  -6610.1279 1090.4080 -3041.7134
v  -6610.1279 1407.1265 -3041.7134
v  -6614.3535 1412.0491 -3041.8921
v  -6614.1055 1085.4623 -3078.2324
v  -6614.1055 1412.0491 -3078.2324
v  -6575.9019 1124.0493 -3069.4214
v  -6576.3057 1124.2977 -3078.1655
v  -6575.5645 1373.0344 -3078.1655
v  -6575.8110 1373.2366 -3069.4214
v  -6587.2500 1113.9597 -3058.1631
v  -6586.5532 1114.5894 -3064.5239
v  -6586.5532 1382.9451 -3064.5239
v  -6587.2500 1383.5515 -3058.1631
v  -6589.0039 1112.0945 -3056.6118
v  -6589.0039 1385.4170 -3056.6118
v  -6599.9019 1100.2953 -3053.9609
v  -6599.9019 1397.2391 -3053.9609
v  -6602.6665 1098.0256 -3048.2524
v  -6602.6665 1399.5088 -3048.2524
v  -6606.0371 1094.1157 -3047.5562
v  -6606.0371 1403.3956 -3047.5562
v  -6606.7344 1092.2944 -3045.2861
v  -6606.7344 1405.2379 -3045.2861
v  -6581.9233 1118.2510 -3068.9727
v  -6582.3970 1379.8436 -3068.9727
v  -6346.8950 1412.0491 -3078.2324
v  -6346.6484 1412.0491 -3041.8921
v  -6576.3057 1373.2366 -3078.1655
v  -6385.4375 1373.0344 -3078.1655
v  -6385.1914 1373.2366 -3069.4214
v  -6575.9019 1373.4832 -3069.4214
v  -6378.6055 1379.8436 -3068.9727
v  -6581.9233 1379.2815 -3068.9727
v  -6374.4937 1382.9451 -3064.5239
v  -6373.7524 1383.5515 -3058.1631
v  -6370.8970 1386.6760 -3056.6118
v  -6361.0986 1397.2391 -3053.9609
v  -6358.3335 1399.5088 -3048.2524
v  -6354.9634 1403.3956 -3047.5562
v  -6354.2661 1405.2379 -3045.2861
v  -6350.8745 1407.1265 -3041.7134
v  -6346.7393 1085.7318 -3041.9150
v  -6346.7393 1412.3185 -3041.9150
v  -6350.9624 1407.3729 -3041.7344
v  -6350.9624 1090.6544 -3041.7344
v  -6346.9858 1085.7318 -3078.2324
v  -6346.9858 1412.3185 -3078.2539
v  -6385.1914 1124.2977 -3069.4214
v  -6385.2803 1373.4832 -3069.4443
v  -6385.5283 1373.2810 -3078.1865
v  -6384.8081 1124.5442 -3078.1865
v  -6373.8408 1114.2295 -3058.1860
v  -6373.8408 1383.8209 -3058.1860
v  -6374.5376 1383.1915 -3064.5449
v  -6374.5376 1114.8358 -3064.5449
v  -6372.0889 1112.3639 -3056.6353
v  -6372.0889 1385.6865 -3056.6353
v  -6361.1890 1100.5417 -3053.9819
v  -6361.1890 1397.4854 -3053.9819
v  -6358.4243 1098.2720 -3048.2739
v  -6358.4243 1399.7551 -3048.2739
v  -6355.0537 1094.3853 -3047.5771
v  -6355.0537 1403.6650 -3047.5771
v  -6354.3569 1092.5430 -3045.3071
v  -6354.3569 1405.4863 -3045.3071
v  -6379.1680 1118.4993 -3068.9727
v  -6378.6958 1380.0901 -3068.9961
v  -6346.8950 1085.4623 -3078.2324
v  -6346.6484 1085.4623 -3041.8921
v  -6614.3535 1085.4623 -3041.8921
v  -6385.4375 1124.4998 -3078.1655
v  -6378.6055 1117.6907 -3068.9727
v  -6374.4937 1114.5894 -3064.5239
v  -6373.7524 1113.9810 -3058.1631
v  -6370.8970 1110.8585 -3056.6118
v  -6361.0986 1100.2953 -3053.9609
v  -6358.3335 1098.0256 -3048.2524
v  -6354.9634 1094.1157 -3047.5562
v  -6354.2661 1092.2944 -3045.2861
v  -6350.8745 1090.4080 -3041.7134
# 81 vertices

vn 0.5791 0.5895 0.5632
vn 0.0000 0.0424 0.9991
vn -0.5791 0.5895 0.5632
vn 0.7082 0.7060 -0.0049
vn -0.7084 0.7058 -0.0049
vn 0.0020 -1.0000 -0.0081
vn -0.0000 -0.8538 0.5207
vn -0.0003 -0.9287 0.3709
vn -0.0003 -0.9264 0.3766
vn -0.0000 -0.8538 0.5206
vn -0.0000 -0.3748 0.9271
vn -0.0000 -0.2363 0.9717
vn -0.0000 -0.9009 0.4340
vn -0.0000 -0.2021 0.9794
vn -0.0000 -0.8261 0.5636
vn -0.0000 -0.9560 0.2934
vn -0.0000 -0.7260 0.6877
vn -0.0006 -0.5415 0.8407
vn -0.0001 -0.0712 0.9975
vn -0.0006 -0.5427 0.8399
vn -0.7722 -0.6354 -0.0044
vn -0.7720 0.6356 -0.0044
vn -0.6647 0.5356 0.5209
vn -0.6647 -0.5356 0.5209
vn 0.9998 0.0010 0.0209
vn 0.7239 -0.0008 0.6899
vn 0.7283 -0.0008 0.6853
vn 0.0880 -0.0001 0.9961
vn 0.9705 -0.0003 0.2411
vn 0.9714 -0.0003 0.2373
vn 0.8232 -0.0010 0.5677
vn 0.8282 -0.0009 0.5605
vn 0.3645 -0.0008 0.9312
vn 0.3717 -0.0009 0.9283
vn 0.2777 -0.0006 0.9607
vn 0.9505 0.0000 0.3106
vn 0.2128 -0.0000 0.9771
vn 0.8901 -0.0000 0.4557
vn 0.8333 -0.0000 0.5528
vn 0.9178 -0.0000 0.3971
vn -0.0444 0.0000 0.9990
vn 0.5791 -0.5895 0.5632
vn -0.5791 -0.5895 0.5632
vn 0.0000 -0.0424 0.9991
vn 0.7082 -0.7060 -0.0049
vn -0.7084 -0.7058 -0.0049
vn 0.0020 1.0000 -0.0081
vn -0.0000 0.8538 0.5207
vn -0.0003 0.9264 0.3766
vn -0.0003 0.9287 0.3709
vn -0.0000 0.3748 0.9271
vn -0.0000 0.2363 0.9717
vn -0.0000 0.9009 0.4340
vn 0.0000 0.2021 0.9794
vn -0.0000 0.8261 0.5636
vn -0.0000 0.9560 0.2934
vn -0.0000 0.7260 0.6877
vn -0.0006 0.5415 0.8407
vn -0.0006 0.5427 0.8399
vn -0.0001 0.0712 0.9975
vn 0.7722 -0.6354 -0.0044
vn 0.6647 -0.5356 0.5209
vn 0.6647 0.5356 0.5209
vn 0.7720 0.6356 -0.0044
vn -0.9998 0.0010 0.0209
vn -0.7239 -0.0008 0.6899
vn -0.0880 -0.0001 0.9961
vn -0.7283 -0.0008 0.6853
vn -0.9705 -0.0003 0.2411
vn -0.9714 -0.0003 0.2373
vn -0.8232 -0.0010 0.5677
vn -0.8282 -0.0009 0.5605
vn -0.3717 -0.0009 0.9283
vn -0.3645 -0.0008 0.9312
vn -0.2777 -0.0006 0.9607
vn -0.9505 0.0000 0.3106
vn -0.2128 0.0000 0.9771
vn -0.8901 0.0000 0.4557
vn -0.8333 0.0000 0.5528
vn -0.9178 0.0000 0.3971
vn 0.0444 0.0000 0.9990
# 81 vertex normals

vt 0.1284 0.8568 0.0000
vt 0.1438 0.8467 0.0000
vt 0.1431 0.1482 0.0000
vt 0.1277 0.1434 0.0000
vt 0.0131 0.8570 0.0000
vt 0.0124 0.1435 0.0000
vt 0.2994 0.7706 0.0000
vt 0.3271 0.7699 0.0000
vt 0.3267 0.2264 0.0000
vt 0.2989 0.2260 0.0000
vt 0.2391 0.7976 0.0000
vt 0.2594 0.7960 0.0000
vt 0.2589 0.2048 0.0000
vt 0.2386 0.1949 0.0000
vt 0.2316 0.8016 0.0000
vt 0.2310 0.1908 0.0000
vt 0.1969 0.8250 0.0000
vt 0.1963 0.1759 0.0000
vt 0.1774 0.8303 0.0000
vt 0.1768 0.1653 0.0000
vt 0.1678 0.8367 0.0000
vt 0.1671 0.1613 0.0000
vt 0.1603 0.8385 0.0000
vt 0.1596 0.1573 0.0000
vt 0.2794 0.7871 0.0000
vt 0.2789 0.2152 0.0000
vt 0.3267 0.2447 0.0000
vt 0.3271 0.7557 0.0000
vt 0.2994 0.7545 0.0000
vt 0.2989 0.2457 0.0000
vt 0.2794 0.7724 0.0000
vt 0.2789 0.2304 0.0000
vt 0.2594 0.7839 0.0000
vt 0.2589 0.2186 0.0000
vt 0.2391 0.7879 0.0000
vt 0.2386 0.2148 0.0000
vt 0.2316 0.7927 0.0000
vt 0.2311 0.2094 0.0000
vt 0.1969 0.8185 0.0000
vt 0.1963 0.1827 0.0000
vt 0.1774 0.8259 0.0000
vt 0.1768 0.1752 0.0000
vt 0.1678 0.8330 0.0000
vt 0.1671 0.1679 0.0000
vt 0.1603 0.8355 0.0000
vt 0.1596 0.1654 0.0000
vt 0.1438 0.8456 0.0000
vt 0.1431 0.1550 0.0000
# 48 texture coords

o warrant_Frame
g warrant_Frame
usemtl Warrant_warrant_Frame
s 2
f 1/1/1 2/2/2 3/3/2 4/4/3 
s 4
f 5/5/4 1/1/1 4/4/3 6/6/5 
f 7/7/6 8/8/6 9/9/6 10/10/6 
s 2
f 11/11/7 12/12/8 13/13/9 14/14/10 
f 15/15/11 11/11/7 14/14/10 16/16/11 
f 17/17/12 15/15/11 16/16/11 18/18/12 
s 4
f 19/19/13 17/17/13 18/18/13 20/20/13 
s 2
f 21/21/14 19/19/14 20/20/14 22/22/14 
s 4
f 23/23/15 21/21/16 22/22/16 24/24/15 
f 2/2/17 23/23/15 24/24/15 3/3/17 
s 2
f 25/25/18 7/7/19 10/10/19 26/26/20 
f 12/12/8 25/25/18 26/26/20 13/13/9 
s 4
f 27/5/21 6/6/22 4/4/23 28/1/24 
f 29/27/25 30/28/25 31/29/25 32/30/25 
s 2
f 33/31/26 34/32/27 32/30/28 31/29/28 
f 35/33/29 13/34/30 34/32/27 33/31/26 
f 36/35/31 14/36/32 13/34/30 35/33/29 
f 36/35/31 37/37/33 16/38/34 14/36/32 
f 38/39/35 18/40/35 16/38/34 37/37/33 
s 4
f 39/41/36 20/42/36 18/40/36 38/39/36 
s 2
f 40/43/37 22/44/37 20/42/37 39/41/37 
s 4
f 41/45/38 24/46/38 22/44/39 40/43/39 
f 42/47/40 3/48/40 24/46/38 41/45/38 
s 2
f 28/1/24 4/4/23 3/48/41 42/47/41 
f 43/1/42 44/4/43 45/3/44 46/2/44 
s 4
f 47/5/45 48/6/46 44/4/43 43/1/42 
f 49/7/47 50/10/47 51/9/47 52/8/47 
s 2
f 53/11/48 54/14/48 55/13/49 56/12/50 
f 57/15/51 58/16/51 54/14/48 53/11/48 
f 59/17/52 60/18/52 58/16/51 57/15/51 
s 4
f 61/19/53 62/20/53 60/18/53 59/17/53 
s 2
f 63/21/54 64/22/54 62/20/54 61/19/54 
s 4
f 65/23/55 66/24/55 64/22/56 63/21/56 
f 46/2/57 45/3/57 66/24/55 65/23/55 
s 2
f 67/25/58 68/26/59 50/10/60 49/7/60 
f 56/12/50 55/13/49 68/26/59 67/25/58 
s 4
f 69/5/61 70/1/62 71/4/63 5/6/64 
f 8/27/65 7/30/65 49/29/65 72/28/65 
s 2
f 73/31/66 49/29/67 7/30/67 25/32/68 
f 74/33/69 73/31/66 25/32/68 12/34/70 
f 75/35/71 74/33/69 12/34/70 11/36/72 
f 15/38/73 76/37/74 75/35/71 11/36/72 
f 77/39/75 76/37/74 15/38/73 17/40/75 
s 4
f 78/41/76 77/39/76 17/40/76 19/42/76 
s 2
f 79/43/77 78/41/77 19/42/77 21/44/77 
s 4
f 80/45/78 79/43/79 21/44/79 23/46/78 
f 81/47/80 80/45/78 23/46/78 2/48/80 
s 2
f 70/1/62 81/47/81 2/48/81 71/4/63 
# 48 polygons

#
# object warrant
#

v  -6372.9736 1402.1672 -3066.4292
v  -6596.4883 1402.1672 -3066.4292
v  -6596.4883 1093.2332 -3066.4292
v  -6372.9736 1093.2332 -3066.4292
# 4 vertices

vn 0.0000 0.0000 1.0000
vn 1.0000 0.0000 -0.0000
# 2 vertex normals

vt 0.8667 0.9899 0.0000
vt 0.0604 0.9899 0.0000
vt 0.0604 0.0101 0.0000
vt 0.8667 0.0101 0.0000
# 4 texture coords

o warrant
g warrant
usemtl Warrant_warrant
s 1
f 82/49/82 83/50/83 84/51/83 85/52/82 
# 1 polygons

