# 3ds Max Wavefront OBJ Exporter v0.99 - (c)2007 guruware
# File Created: 19.01.2025 17:02:47

#
# object Hole_2
#

v  -6.4016 -13.1894 12.8104
v  6.4016 -13.1894 12.8104
v  6.4016 -13.1894 52.3811
v  -6.4016 -13.1894 52.3811
v  -6.4016 -12.9662 95.7936
v  6.4016 -12.9662 95.7936
v  6.4016 -5.0727 12.8104
v  -6.4016 -5.0727 12.8104
v  19.2048 -13.1894 12.8104
v  19.2048 -13.1894 52.3811
v  -19.2048 -13.1894 52.3811
v  -19.2048 -13.1894 12.8104
v  19.2048 -12.9662 95.7936
v  19.2048 -5.0727 12.8104
v  -19.2048 -5.0727 12.8104
v  -19.2048 -12.9662 95.7936
v  -6.4016 -12.5121 12.8104
v  -19.2048 -12.5121 12.8104
v  6.4016 -12.5121 12.8104
v  19.2048 -12.5121 12.8104
# 20 vertices

vn 0.0000 -1.0000 -0.0000
vn 0.0000 0.9955 0.0947
vn 0.0000 -1.0000 0.0051
vn 0.0000 0.0000 -1.0000
# 4 vertex normals

vt 0.6667 0.5000 0.0000
vt 0.3333 0.5000 0.0000
vt 0.3333 0.0000 0.0000
vt 0.6667 0.0000 0.0000
vt 0.6667 1.0000 0.0000
vt 0.3333 1.0000 0.0000
vt 0.0000 0.5000 0.0000
vt 0.0000 0.0000 0.0000
vt 1.0000 0.0000 0.0000
vt 1.0000 0.5000 0.0000
vt 1.0000 1.0000 0.0000
vt 0.0000 1.0000 0.0000
# 12 texture coords

o Hole_2
g Hole_2
s 2
f 1/1/1 2/2/1 3/3/1 
f 3/3/1 4/4/1 1/1/1 
s 4
f 5/3/2 6/4/2 7/1/2 
f 7/1/2 8/2/2 5/3/2 
s 8
f 4/3/3 3/4/3 6/5/3 
f 6/5/3 5/6/3 4/3/3 
s 2
f 9/7/1 10/8/1 3/3/1 
f 3/3/1 2/2/1 9/7/1 
f 1/1/1 4/4/1 11/9/1 
f 11/9/1 12/10/1 1/1/1 
s 4
f 13/9/2 14/10/2 7/1/2 
f 7/1/2 6/4/2 13/9/2 
f 5/3/2 8/2/2 15/7/2 
f 15/7/2 16/8/2 5/3/2 
s 8
f 10/9/3 13/11/3 6/5/3 
f 6/5/3 3/4/3 10/9/3 
f 4/3/3 5/6/3 16/12/3 
f 16/12/3 11/8/3 4/3/3 
s off
f 15/7/4 8/2/4 17/2/4 
f 17/2/4 18/7/4 15/7/4 
f 8/2/4 7/1/4 19/1/4 
f 19/1/4 17/2/4 8/2/4 
f 7/1/4 14/10/4 20/10/4 
f 20/10/4 19/1/4 7/1/4 
# 24 faces

